<mxfile host="app.diagrams.net" modified="2020-08-17T03:29:51.159Z" agent="5.0 (Windows NT 10.0; Win64; x64) AppleWebKit/537.36 (KHTML, like Gecko) Chrome/84.0.4147.125 Safari/537.36 Edg/84.0.522.59" etag="P3aqM6o7p1S3tvqibSis" version="13.6.2" type="github">
  <diagram id="xpJRdlYLKwsc5euBrE--" name="Page-1">
    <mxGraphModel dx="1248" dy="706" grid="1" gridSize="10" guides="1" tooltips="1" connect="1" arrows="1" fold="1" page="1" pageScale="1" pageWidth="827" pageHeight="1169" math="0" shadow="0">
      <root>
        <mxCell id="0" />
        <mxCell id="1" parent="0" />
        <mxCell id="8oZdIHn2W97k4Ou5J3es-4" style="edgeStyle=orthogonalEdgeStyle;rounded=0;orthogonalLoop=1;jettySize=auto;html=1;exitX=0.5;exitY=1;exitDx=0;exitDy=0;exitPerimeter=0;" edge="1" parent="1" source="8oZdIHn2W97k4Ou5J3es-1" target="8oZdIHn2W97k4Ou5J3es-2">
          <mxGeometry relative="1" as="geometry" />
        </mxCell>
        <mxCell id="8oZdIHn2W97k4Ou5J3es-1" value="START" style="strokeWidth=2;html=1;shape=mxgraph.flowchart.start_1;whiteSpace=wrap;" vertex="1" parent="1">
          <mxGeometry x="160" y="20" width="100" height="60" as="geometry" />
        </mxCell>
        <mxCell id="8oZdIHn2W97k4Ou5J3es-5" style="edgeStyle=orthogonalEdgeStyle;rounded=0;orthogonalLoop=1;jettySize=auto;html=1;exitX=0.5;exitY=1;exitDx=0;exitDy=0;entryX=0.5;entryY=0;entryDx=0;entryDy=0;entryPerimeter=0;" edge="1" parent="1" source="8oZdIHn2W97k4Ou5J3es-2" target="8oZdIHn2W97k4Ou5J3es-3">
          <mxGeometry relative="1" as="geometry" />
        </mxCell>
        <mxCell id="8oZdIHn2W97k4Ou5J3es-2" value="" style="verticalLabelPosition=bottom;verticalAlign=top;html=1;shape=hexagon;perimeter=hexagonPerimeter2;arcSize=6;size=0.27;" vertex="1" parent="1">
          <mxGeometry x="100" y="120" width="220" height="60" as="geometry" />
        </mxCell>
        <mxCell id="8oZdIHn2W97k4Ou5J3es-9" style="edgeStyle=orthogonalEdgeStyle;rounded=0;orthogonalLoop=1;jettySize=auto;html=1;exitX=0.5;exitY=1;exitDx=0;exitDy=0;exitPerimeter=0;entryX=0.5;entryY=0;entryDx=0;entryDy=0;entryPerimeter=0;" edge="1" parent="1" source="8oZdIHn2W97k4Ou5J3es-3" target="8oZdIHn2W97k4Ou5J3es-8">
          <mxGeometry relative="1" as="geometry" />
        </mxCell>
        <mxCell id="8oZdIHn2W97k4Ou5J3es-3" value="" style="verticalLabelPosition=bottom;verticalAlign=top;html=1;shape=mxgraph.flowchart.on-page_reference;" vertex="1" parent="1">
          <mxGeometry x="195" y="230" width="30" height="30" as="geometry" />
        </mxCell>
        <mxCell id="8oZdIHn2W97k4Ou5J3es-7" style="edgeStyle=orthogonalEdgeStyle;rounded=0;orthogonalLoop=1;jettySize=auto;html=1;exitX=0;exitY=0.5;exitDx=0;exitDy=0;" edge="1" parent="1" source="8oZdIHn2W97k4Ou5J3es-6">
          <mxGeometry relative="1" as="geometry">
            <mxPoint x="230" y="240" as="targetPoint" />
          </mxGeometry>
        </mxCell>
        <mxCell id="8oZdIHn2W97k4Ou5J3es-6" value="startDan&lt;br&gt;endDan" style="html=1;strokeWidth=2;shape=manualInput;whiteSpace=wrap;rounded=1;size=26;arcSize=11;" vertex="1" parent="1">
          <mxGeometry x="320" y="210" width="94" height="60" as="geometry" />
        </mxCell>
        <mxCell id="8oZdIHn2W97k4Ou5J3es-14" style="edgeStyle=orthogonalEdgeStyle;rounded=0;orthogonalLoop=1;jettySize=auto;html=1;exitX=0.5;exitY=1;exitDx=0;exitDy=0;exitPerimeter=0;entryX=0.5;entryY=0;entryDx=0;entryDy=0;" edge="1" parent="1" source="8oZdIHn2W97k4Ou5J3es-8" target="8oZdIHn2W97k4Ou5J3es-10">
          <mxGeometry relative="1" as="geometry" />
        </mxCell>
        <mxCell id="8oZdIHn2W97k4Ou5J3es-18" style="edgeStyle=orthogonalEdgeStyle;rounded=0;orthogonalLoop=1;jettySize=auto;html=1;exitX=1;exitY=0.5;exitDx=0;exitDy=0;exitPerimeter=0;entryX=1;entryY=0.5;entryDx=0;entryDy=0;entryPerimeter=0;" edge="1" parent="1" source="8oZdIHn2W97k4Ou5J3es-8" target="8oZdIHn2W97k4Ou5J3es-13">
          <mxGeometry relative="1" as="geometry">
            <mxPoint x="270" y="540" as="targetPoint" />
            <Array as="points">
              <mxPoint x="430" y="355" />
              <mxPoint x="430" y="540" />
            </Array>
          </mxGeometry>
        </mxCell>
        <mxCell id="8oZdIHn2W97k4Ou5J3es-8" value="startDan &amp;gt; endDan" style="strokeWidth=2;html=1;shape=mxgraph.flowchart.decision;whiteSpace=wrap;" vertex="1" parent="1">
          <mxGeometry x="120" y="320" width="180" height="70" as="geometry" />
        </mxCell>
        <mxCell id="8oZdIHn2W97k4Ou5J3es-15" style="edgeStyle=orthogonalEdgeStyle;rounded=0;orthogonalLoop=1;jettySize=auto;html=1;exitX=0.5;exitY=1;exitDx=0;exitDy=0;entryX=0.5;entryY=0;entryDx=0;entryDy=0;entryPerimeter=0;" edge="1" parent="1" source="8oZdIHn2W97k4Ou5J3es-10" target="8oZdIHn2W97k4Ou5J3es-13">
          <mxGeometry relative="1" as="geometry" />
        </mxCell>
        <mxCell id="8oZdIHn2W97k4Ou5J3es-10" value="tmp =startDan&lt;br&gt;startDan = endDan&lt;br&gt;end = end" style="rounded=1;whiteSpace=wrap;html=1;absoluteArcSize=1;arcSize=14;strokeWidth=2;" vertex="1" parent="1">
          <mxGeometry x="100" y="420" width="220" height="70" as="geometry" />
        </mxCell>
        <mxCell id="8oZdIHn2W97k4Ou5J3es-16" style="edgeStyle=orthogonalEdgeStyle;rounded=0;orthogonalLoop=1;jettySize=auto;html=1;entryX=0.5;entryY=0;entryDx=0;entryDy=0;entryPerimeter=0;" edge="1" parent="1" source="8oZdIHn2W97k4Ou5J3es-13" target="8oZdIHn2W97k4Ou5J3es-12">
          <mxGeometry relative="1" as="geometry" />
        </mxCell>
        <mxCell id="8oZdIHn2W97k4Ou5J3es-12" value="END" style="strokeWidth=2;html=1;shape=mxgraph.flowchart.terminator;whiteSpace=wrap;" vertex="1" parent="1">
          <mxGeometry x="160" y="620" width="100" height="50" as="geometry" />
        </mxCell>
        <mxCell id="8oZdIHn2W97k4Ou5J3es-13" value="startDan&lt;br&gt;endDan" style="strokeWidth=2;html=1;shape=mxgraph.flowchart.document2;whiteSpace=wrap;size=0.25;" vertex="1" parent="1">
          <mxGeometry x="160" y="510" width="100" height="60" as="geometry" />
        </mxCell>
        <mxCell id="8oZdIHn2W97k4Ou5J3es-27" style="edgeStyle=orthogonalEdgeStyle;rounded=0;orthogonalLoop=1;jettySize=auto;html=1;exitX=0.5;exitY=1;exitDx=0;exitDy=0;exitPerimeter=0;entryX=0.5;entryY=0;entryDx=0;entryDy=0;" edge="1" parent="1" source="8oZdIHn2W97k4Ou5J3es-19" target="8oZdIHn2W97k4Ou5J3es-20">
          <mxGeometry relative="1" as="geometry" />
        </mxCell>
        <mxCell id="8oZdIHn2W97k4Ou5J3es-19" value="START" style="strokeWidth=2;html=1;shape=mxgraph.flowchart.start_2;whiteSpace=wrap;" vertex="1" parent="1">
          <mxGeometry x="620" y="20" width="130" height="60" as="geometry" />
        </mxCell>
        <mxCell id="8oZdIHn2W97k4Ou5J3es-28" style="edgeStyle=orthogonalEdgeStyle;rounded=0;orthogonalLoop=1;jettySize=auto;html=1;exitX=0.5;exitY=1;exitDx=0;exitDy=0;entryX=0.5;entryY=0;entryDx=0;entryDy=0;entryPerimeter=0;" edge="1" parent="1" source="8oZdIHn2W97k4Ou5J3es-20">
          <mxGeometry relative="1" as="geometry">
            <mxPoint x="682.5" y="215" as="targetPoint" />
          </mxGeometry>
        </mxCell>
        <mxCell id="8oZdIHn2W97k4Ou5J3es-20" value="" style="verticalLabelPosition=bottom;verticalAlign=top;html=1;shape=hexagon;perimeter=hexagonPerimeter2;arcSize=6;size=0.20454545454545456;" vertex="1" parent="1">
          <mxGeometry x="575" y="130" width="220" height="50" as="geometry" />
        </mxCell>
        <mxCell id="8oZdIHn2W97k4Ou5J3es-36" style="edgeStyle=orthogonalEdgeStyle;rounded=0;orthogonalLoop=1;jettySize=auto;html=1;exitX=0;exitY=0.5;exitDx=0;exitDy=0;exitPerimeter=0;entryX=0;entryY=0.5;entryDx=0;entryDy=0;" edge="1" parent="1" source="8oZdIHn2W97k4Ou5J3es-23" target="8oZdIHn2W97k4Ou5J3es-35">
          <mxGeometry relative="1" as="geometry" />
        </mxCell>
        <mxCell id="8oZdIHn2W97k4Ou5J3es-37" style="edgeStyle=orthogonalEdgeStyle;rounded=0;orthogonalLoop=1;jettySize=auto;html=1;exitX=0.5;exitY=1;exitDx=0;exitDy=0;exitPerimeter=0;entryX=0.5;entryY=0;entryDx=0;entryDy=0;entryPerimeter=0;" edge="1" parent="1" source="8oZdIHn2W97k4Ou5J3es-23" target="8oZdIHn2W97k4Ou5J3es-34">
          <mxGeometry relative="1" as="geometry" />
        </mxCell>
        <mxCell id="8oZdIHn2W97k4Ou5J3es-42" style="edgeStyle=orthogonalEdgeStyle;rounded=0;orthogonalLoop=1;jettySize=auto;html=1;exitX=1;exitY=0.5;exitDx=0;exitDy=0;exitPerimeter=0;entryX=1;entryY=0.5;entryDx=0;entryDy=0;entryPerimeter=0;" edge="1" parent="1" source="8oZdIHn2W97k4Ou5J3es-23" target="8oZdIHn2W97k4Ou5J3es-40">
          <mxGeometry relative="1" as="geometry" />
        </mxCell>
        <mxCell id="8oZdIHn2W97k4Ou5J3es-23" value="num&amp;lt;=10" style="strokeWidth=2;html=1;shape=mxgraph.flowchart.decision;whiteSpace=wrap;" vertex="1" parent="1">
          <mxGeometry x="597.5" y="290" width="170" height="70" as="geometry" />
        </mxCell>
        <mxCell id="8oZdIHn2W97k4Ou5J3es-47" style="edgeStyle=orthogonalEdgeStyle;rounded=0;orthogonalLoop=1;jettySize=auto;html=1;entryX=0.5;entryY=0;entryDx=0;entryDy=0;entryPerimeter=0;" edge="1" parent="1" source="8oZdIHn2W97k4Ou5J3es-44" target="8oZdIHn2W97k4Ou5J3es-26">
          <mxGeometry relative="1" as="geometry" />
        </mxCell>
        <mxCell id="8oZdIHn2W97k4Ou5J3es-26" value="END" style="strokeWidth=2;html=1;shape=mxgraph.flowchart.terminator;whiteSpace=wrap;" vertex="1" parent="1">
          <mxGeometry x="632.5" y="770" width="100" height="50" as="geometry" />
        </mxCell>
        <mxCell id="8oZdIHn2W97k4Ou5J3es-32" value="total = 0, num&amp;nbsp;" style="text;html=1;align=center;verticalAlign=middle;resizable=0;points=[];autosize=1;" vertex="1" parent="1">
          <mxGeometry x="637.5" y="145" width="90" height="20" as="geometry" />
        </mxCell>
        <mxCell id="8oZdIHn2W97k4Ou5J3es-51" style="edgeStyle=orthogonalEdgeStyle;rounded=0;orthogonalLoop=1;jettySize=auto;html=1;exitX=0.5;exitY=1;exitDx=0;exitDy=0;entryX=0.5;entryY=0;entryDx=0;entryDy=0;entryPerimeter=0;" edge="1" parent="1" source="8oZdIHn2W97k4Ou5J3es-33" target="8oZdIHn2W97k4Ou5J3es-23">
          <mxGeometry relative="1" as="geometry" />
        </mxCell>
        <mxCell id="8oZdIHn2W97k4Ou5J3es-33" value="num = 1" style="rounded=1;whiteSpace=wrap;html=1;absoluteArcSize=1;arcSize=14;strokeWidth=2;" vertex="1" parent="1">
          <mxGeometry x="635" y="225" width="100" height="45" as="geometry" />
        </mxCell>
        <mxCell id="8oZdIHn2W97k4Ou5J3es-34" value="num" style="strokeWidth=2;html=1;shape=mxgraph.flowchart.document2;whiteSpace=wrap;size=0.25;" vertex="1" parent="1">
          <mxGeometry x="632.5" y="390" width="100" height="40" as="geometry" />
        </mxCell>
        <mxCell id="8oZdIHn2W97k4Ou5J3es-41" style="edgeStyle=orthogonalEdgeStyle;rounded=0;orthogonalLoop=1;jettySize=auto;html=1;exitX=0.5;exitY=1;exitDx=0;exitDy=0;entryX=0.5;entryY=0;entryDx=0;entryDy=0;entryPerimeter=0;" edge="1" parent="1" source="8oZdIHn2W97k4Ou5J3es-35" target="8oZdIHn2W97k4Ou5J3es-40">
          <mxGeometry relative="1" as="geometry" />
        </mxCell>
        <mxCell id="8oZdIHn2W97k4Ou5J3es-35" value="num += 1" style="rounded=1;whiteSpace=wrap;html=1;absoluteArcSize=1;arcSize=14;strokeWidth=2;" vertex="1" parent="1">
          <mxGeometry x="632.5" y="510" width="100" height="45" as="geometry" />
        </mxCell>
        <mxCell id="8oZdIHn2W97k4Ou5J3es-39" value="yes" style="text;html=1;align=center;verticalAlign=middle;resizable=0;points=[];autosize=1;" vertex="1" parent="1">
          <mxGeometry x="690" y="370" width="30" height="20" as="geometry" />
        </mxCell>
        <mxCell id="8oZdIHn2W97k4Ou5J3es-46" style="edgeStyle=orthogonalEdgeStyle;rounded=0;orthogonalLoop=1;jettySize=auto;html=1;exitX=0.5;exitY=1;exitDx=0;exitDy=0;exitPerimeter=0;entryX=0.5;entryY=0;entryDx=0;entryDy=0;entryPerimeter=0;" edge="1" parent="1" source="8oZdIHn2W97k4Ou5J3es-40" target="8oZdIHn2W97k4Ou5J3es-44">
          <mxGeometry relative="1" as="geometry" />
        </mxCell>
        <mxCell id="8oZdIHn2W97k4Ou5J3es-40" value="" style="verticalLabelPosition=bottom;verticalAlign=top;html=1;shape=mxgraph.flowchart.on-page_reference;" vertex="1" parent="1">
          <mxGeometry x="667.5" y="600" width="30" height="30" as="geometry" />
        </mxCell>
        <mxCell id="8oZdIHn2W97k4Ou5J3es-44" value="total" style="strokeWidth=2;html=1;shape=mxgraph.flowchart.document2;whiteSpace=wrap;size=0.30752906799316404;" vertex="1" parent="1">
          <mxGeometry x="643.75" y="660" width="77.5" height="60" as="geometry" />
        </mxCell>
        <mxCell id="8oZdIHn2W97k4Ou5J3es-49" style="edgeStyle=orthogonalEdgeStyle;rounded=0;orthogonalLoop=1;jettySize=auto;html=1;entryX=0.5;entryY=0;entryDx=0;entryDy=0;" edge="1" parent="1" source="8oZdIHn2W97k4Ou5J3es-34" target="8oZdIHn2W97k4Ou5J3es-48">
          <mxGeometry relative="1" as="geometry" />
        </mxCell>
        <mxCell id="8oZdIHn2W97k4Ou5J3es-50" style="edgeStyle=orthogonalEdgeStyle;rounded=0;orthogonalLoop=1;jettySize=auto;html=1;exitX=0.5;exitY=1;exitDx=0;exitDy=0;entryX=0.5;entryY=0;entryDx=0;entryDy=0;" edge="1" parent="1" source="8oZdIHn2W97k4Ou5J3es-48" target="8oZdIHn2W97k4Ou5J3es-35">
          <mxGeometry relative="1" as="geometry" />
        </mxCell>
        <mxCell id="8oZdIHn2W97k4Ou5J3es-48" value="total += num" style="rounded=1;whiteSpace=wrap;html=1;absoluteArcSize=1;arcSize=14;strokeWidth=2;" vertex="1" parent="1">
          <mxGeometry x="632.5" y="460" width="100" height="30" as="geometry" />
        </mxCell>
        <mxCell id="8oZdIHn2W97k4Ou5J3es-52" value="no" style="text;html=1;align=center;verticalAlign=middle;resizable=0;points=[];autosize=1;" vertex="1" parent="1">
          <mxGeometry x="765" y="300" width="30" height="20" as="geometry" />
        </mxCell>
      </root>
    </mxGraphModel>
  </diagram>
</mxfile>
